<svg width="24" height="24" viewBox="0 0 24 24" fill="none" xmlns="http://www.w3.org/2000/svg">
<path fill-rule="evenodd" clip-rule="evenodd" d="M9 8C9 7.26017 9.27328 6.54852 9.76393 6C9.80095 5.95861 9.83921 5.91815 9.87868 5.87868C10.4413 5.31607 11.2044 5 12 5C12.7956 5 13.5587 5.31607 14.1213 5.87868C14.1608 5.91815 14.1991 5.95861 14.2361 6C14.7267 6.54852 15 7.26017 15 8H18C18.5523 8 19 8.44772 19 9C19 9.55228 18.5523 10 18 10H17V16C17 17.6569 15.6569 19 14 19H10C8.34315 19 7 17.6569 7 16V10H6C5.44772 10 5 9.55228 5 9C5 8.44772 5.44772 8 6 8L9 8ZM10.6363 8L13.3637 8C13.3637 7.63833 13.22 7.29146 12.9643 7.03572C12.7085 6.77998 12.3617 6.6363 12 6.6363C11.6383 6.6363 11.2915 6.77998 11.0357 7.03572C10.78 7.29146 10.6363 7.63833 10.6363 8ZM9 16V10H15V16C15 16.5523 14.5523 17 14 17H10C9.44772 17 9 16.5523 9 16Z" fill="#0F1014"/>
</svg>
