<svg width="24" height="24" viewBox="0 0 24 24" fill="none" xmlns="http://www.w3.org/2000/svg">
<path fill-rule="evenodd" clip-rule="evenodd" d="M5 8C5 6.34315 6.34315 5 8 5H12C13.6569 5 15 6.34315 15 8V9H16C17.6569 9 19 10.3431 19 12V16C19 17.6569 17.6569 19 16 19H12C10.3431 19 9 17.6569 9 16V15H8C6.34315 15 5 13.6569 5 12V8ZM8 7H12C12.5523 7 13 7.44772 13 8V12C13 12.5523 12.5523 13 12 13H8C7.44772 13 7 12.5523 7 12V8C7 7.44772 7.44772 7 8 7ZM11 15V16C11 16.5523 11.4477 17 12 17H16C16.5523 17 17 16.5523 17 16V12C17 11.4477 16.5523 11 16 11H15V12C15 13.6569 13.6569 15 12 15H11Z" fill="#0F1014"/>
</svg>
